<svg width="24" height="24" viewBox="0 0 24 24" fill="none" xmlns="http://www.w3.org/2000/svg">
<path opacity="1" d="M12 0.75C5.787 0.75 0.75 5.78662 0.75 12C0.75 18.213 5.787 23.25 12 23.25C18.213 23.25 23.25 18.213 23.25 12C23.25 5.78662 18.213 0.75 12 0.75ZM5.4375 18.75C5.23854 18.75 5.04774 18.6709 4.90709 18.5301C4.76644 18.3894 4.68745 18.1986 4.6875 17.9996C4.68755 17.8007 4.76663 17.6099 4.90736 17.4692C5.04808 17.3286 5.23891 17.2496 5.43788 17.2496C5.53639 17.2496 5.63394 17.2691 5.72495 17.3068C5.81595 17.3445 5.89864 17.3998 5.96828 17.4695C6.03793 17.5392 6.09316 17.6219 6.13084 17.7129C6.16852 17.8039 6.1879 17.9015 6.18787 18C6.18785 18.0985 6.16842 18.1961 6.1307 18.2871C6.09298 18.3781 6.0377 18.4608 5.96802 18.5304C5.89834 18.6001 5.81563 18.6553 5.7246 18.693C5.63357 18.7306 5.53602 18.75 5.4375 18.75ZM5.25 16.125C5.05109 16.125 4.86032 16.046 4.71967 15.9053C4.57902 15.7647 4.5 15.5739 4.5 15.375V7.875C4.5 7.67609 4.57902 7.48532 4.71967 7.34467C4.86032 7.20402 5.05109 7.125 5.25 7.125H6.5625V16.125H5.25ZM8.0625 18.75C7.86354 18.75 7.67274 18.6709 7.53209 18.5301C7.39144 18.3894 7.31245 18.1986 7.3125 17.9996C7.31255 17.8007 7.39163 17.6099 7.53236 17.4692C7.67308 17.3286 7.86391 17.2496 8.06287 17.2496C8.26184 17.2497 8.45263 17.3288 8.59328 17.4695C8.73393 17.6102 8.81292 17.801 8.81287 18C8.81283 18.199 8.73374 18.3898 8.59302 18.5304C8.45229 18.6711 8.26146 18.75 8.0625 18.75ZM10.6875 18.75C10.4885 18.75 10.2977 18.6709 10.1571 18.5301C10.0164 18.3894 9.93745 18.1986 9.9375 17.9996C9.93755 17.8007 10.0166 17.6099 10.1574 17.4692C10.2981 17.3286 10.4889 17.2496 10.6879 17.2496C10.8868 17.2497 11.0776 17.3288 11.2183 17.4695C11.3589 17.6102 11.4379 17.801 11.4379 18C11.4378 18.199 11.3587 18.3898 11.218 18.5304C11.0773 18.6711 10.8865 18.75 10.6875 18.75ZM13.3125 18.75C13.1135 18.75 12.9227 18.6709 12.7821 18.5301C12.6414 18.3894 12.5625 18.1986 12.5625 17.9996C12.5625 17.8007 12.6416 17.6099 12.7824 17.4692C12.9231 17.3286 13.1139 17.2496 13.3129 17.2496C13.5118 17.2497 13.7026 17.3288 13.8433 17.4695C13.9839 17.6102 14.0629 17.801 14.0629 18C14.0628 18.199 13.9837 18.3898 13.843 18.5304C13.7023 18.6711 13.5115 18.75 13.3125 18.75ZM15.9375 18.75C15.7385 18.75 15.5477 18.6709 15.4071 18.5301C15.2664 18.3894 15.1875 18.1986 15.1875 17.9996C15.1875 17.8007 15.2666 17.6099 15.4074 17.4692C15.5481 17.3286 15.7389 17.2496 15.9379 17.2496C16.1368 17.2497 16.3276 17.3288 16.4683 17.4695C16.6089 17.6102 16.6879 17.801 16.6879 18C16.6878 18.199 16.6087 18.3898 16.468 18.5304C16.3273 18.6711 16.1365 18.75 15.9375 18.75ZM7.3125 16.125V7.125H8.625V5.66138C8.625 5.02087 9.12975 4.5 9.75 4.5H14.25C14.8702 4.5 15.375 5.02087 15.375 5.66138V7.125H16.6875V16.125H7.3125ZM18.5625 18.75C18.3635 18.75 18.1727 18.6709 18.0321 18.5301C17.8914 18.3894 17.8125 18.1986 17.8125 17.9996C17.8125 17.8007 17.8916 17.6099 18.0324 17.4692C18.1731 17.3286 18.3639 17.2496 18.5629 17.2496C18.7618 17.2497 18.9526 17.3288 19.0933 17.4695C19.2339 17.6102 19.3129 17.801 19.3129 18C19.3128 18.199 19.2337 18.3898 19.093 18.5304C18.9523 18.6711 18.7615 18.75 18.5625 18.75ZM19.5 15.375C19.5 15.5739 19.421 15.7647 19.2803 15.9053C19.1397 16.046 18.9489 16.125 18.75 16.125H17.4375V7.125H18.75C18.9489 7.125 19.1397 7.20402 19.2803 7.34467C19.421 7.48532 19.5 7.67609 19.5 7.875V15.375Z" fill="#EEEDF7"/>
</svg>
